<?xml version="1.0" standalone="no"?>
<!DOCTYPE svg PUBLIC "-//W3C//DTD SVG 1.1//EN"
"http://www.w3.org/Graphics/SVG/1.1/DTD/svg11.dtd">

<svg width="409" height="422" view_box="0 0 409 422"
xmlns="http://www.w3.org/2000/svg"
xmlns:link="http://www.w3.org/1999/xlink">\n\n<desc>Généré par Mocodo 2.3.7 le Thu, 03 Feb 2022 05:36:54</desc>

<rect id="frame" x="0" y="0" width="409" height="422" fill="#f7f7f7" stroke="none" stroke-width="0"/>

<!-- Association is branded as -->
<line x1="207" y1="228" x2="346" y2="228" stroke="#de77ae" stroke-width="2"/>
<text x="271" y="245.0" fill="#4d9221" font-family="Verdana" font-size="12">1,1</text>
<line x1="346" y1="68" x2="346" y2="228" stroke="#de77ae" stroke-width="2"/>
<text x="351.0" y="127" fill="#4d9221" font-family="Verdana" font-size="12">0,N</text>
<g id="association-is branded as">
	<path d="M 380 203 a 14 14 90 0 1 14 14 V 228 h -96 V 217 a 14 14 90 0 1 14 -14" fill="#f1b6da" stroke="#f1b6da" stroke-width="0"/>
	<path d="M 394 228.0 v 11 a 14 14 90 0 1 -14 14 H 312 a 14 14 90 0 1 -14 -14 V 228.0 H 96" fill="#fde0ef" stroke="#fde0ef" stroke-width="0"/>
	<rect x="298" y="203" width="96" height="50" fill="none" rx="14" stroke="#de77ae" stroke-width="2"/>
	<line x1="298" y1="228" x2="394" y2="228" stroke="#de77ae" stroke-width="1"/>
	<text x="305" y="220.7" fill="#000000" font-family="Verdana" font-size="12">is branded as</text>
</g>

<!-- Association is type of -->
<line x1="207" y1="228" x2="207" y2="371" stroke="#de77ae" stroke-width="2"/>
<text x="212.0" y="321" fill="#4d9221" font-family="Verdana" font-size="12">1,1</text>
<line x1="71" y1="371" x2="207" y2="371" stroke="#de77ae" stroke-width="2"/>
<text x="126" y="388.0" fill="#4d9221" font-family="Verdana" font-size="12">0,N</text>
<g id="association-is type of">
	<path d="M 229 346 a 14 14 90 0 1 14 14 V 371 h -72 V 360 a 14 14 90 0 1 14 -14" fill="#f1b6da" stroke="#f1b6da" stroke-width="0"/>
	<path d="M 243 371.0 v 11 a 14 14 90 0 1 -14 14 H 185 a 14 14 90 0 1 -14 -14 V 371.0 H 72" fill="#fde0ef" stroke="#fde0ef" stroke-width="0"/>
	<rect x="171" y="346" width="72" height="50" fill="none" rx="14" stroke="#de77ae" stroke-width="2"/>
	<line x1="171" y1="371" x2="243" y2="371" stroke="#de77ae" stroke-width="1"/>
	<text x="178" y="363.7" fill="#000000" font-family="Verdana" font-size="12">is type of</text>
</g>

<!-- Association is tagged by -->
<line x1="207" y1="228" x2="71" y2="228" stroke="#de77ae" stroke-width="2"/>
<text x="122" y="245.0" fill="#4d9221" font-family="Verdana" font-size="12">0,1</text>
<line x1="71" y1="68" x2="71" y2="228" stroke="#de77ae" stroke-width="2"/>
<text x="76.0" y="144" fill="#4d9221" font-family="Verdana" font-size="12">0,N</text>
<g id="association-is tagged by">
	<path d="M 102 203 a 14 14 90 0 1 14 14 V 228 h -90 V 217 a 14 14 90 0 1 14 -14" fill="#f1b6da" stroke="#f1b6da" stroke-width="0"/>
	<path d="M 116 228.0 v 11 a 14 14 90 0 1 -14 14 H 40 a 14 14 90 0 1 -14 -14 V 228.0 H 90" fill="#fde0ef" stroke="#fde0ef" stroke-width="0"/>
	<rect x="26" y="203" width="90" height="50" fill="none" rx="14" stroke="#de77ae" stroke-width="2"/>
	<line x1="26" y1="228" x2="116" y2="228" stroke="#de77ae" stroke-width="1"/>
	<text x="33" y="220.7" fill="#000000" font-family="Verdana" font-size="12">is tagged by</text>
</g>

<!-- Entity CATEGORY -->
<g id="entity-CATEGORY">
	<g id="frame-CATEGORY">
		<rect x="9" y="9" width="124" height="25" fill="#b8e186" stroke="#b8e186" stroke-width="0"/>
		<rect x="9" y="34.0" width="124" height="93" fill="#e6f5d0" stroke="#e6f5d0" stroke-width="0"/>
		<rect x="9" y="9" width="124" height="118" fill="none" stroke="#7fbc41" stroke-width="2"/>
		<line x1="9" y1="34" x2="133" y2="34" stroke="#7fbc41" stroke-width="1"/>
	</g>
	<text x="37" y="26.7" fill="#000000" font-family="Verdana" font-size="12">CATEGORY</text>
	<text x="14" y="51.7" fill="#000000" font-family="Verdana" font-size="12">category_identifier</text>
	<line x1="14" y1="54" x2="128" y2="54" stroke="#000000" stroke-width="1"/>
	<text x="14" y="68.8" fill="#000000" font-family="Verdana" font-size="12">name</text>
	<text x="14" y="85.8" fill="#000000" font-family="Verdana" font-size="12">subtitle</text>
	<text x="14" y="102.8" fill="#000000" font-family="Verdana" font-size="12">picture</text>
	<text x="14" y="119.8" fill="#000000" font-family="Verdana" font-size="12">home_order</text>
</g>

<!-- Entity BRAND -->
<g id="entity-BRAND">
	<g id="frame-BRAND">
		<rect x="292" y="26" width="108" height="25" fill="#b8e186" stroke="#b8e186" stroke-width="0"/>
		<rect x="292" y="51.0" width="108" height="59" fill="#e6f5d0" stroke="#e6f5d0" stroke-width="0"/>
		<rect x="292" y="26" width="108" height="84" fill="none" stroke="#7fbc41" stroke-width="2"/>
		<line x1="292" y1="51" x2="400" y2="51" stroke="#7fbc41" stroke-width="1"/>
	</g>
	<text x="324" y="43.7" fill="#000000" font-family="Verdana" font-size="12">BRAND</text>
	<text x="297" y="68.8" fill="#000000" font-family="Verdana" font-size="12">brand_identifier</text>
	<line x1="297" y1="71" x2="394" y2="71" stroke="#000000" stroke-width="1"/>
	<text x="297" y="85.8" fill="#000000" font-family="Verdana" font-size="12">name</text>
	<text x="297" y="102.8" fill="#000000" font-family="Verdana" font-size="12">footer_order</text>
</g>

<!-- Entity TYPE -->
<g id="entity-TYPE">
	<g id="frame-TYPE">
		<rect x="21" y="329" width="100" height="25" fill="#b8e186" stroke="#b8e186" stroke-width="0"/>
		<rect x="21" y="354.0" width="100" height="59" fill="#e6f5d0" stroke="#e6f5d0" stroke-width="0"/>
		<rect x="21" y="329" width="100" height="84" fill="none" stroke="#7fbc41" stroke-width="2"/>
		<line x1="21" y1="354" x2="121" y2="354" stroke="#7fbc41" stroke-width="1"/>
	</g>
	<text x="55" y="346.7" fill="#000000" font-family="Verdana" font-size="12">TYPE</text>
	<text x="26" y="371.8" fill="#000000" font-family="Verdana" font-size="12">type_identifier</text>
	<line x1="26" y1="374" x2="115" y2="374" stroke="#000000" stroke-width="1"/>
	<text x="26" y="388.8" fill="#000000" font-family="Verdana" font-size="12">name</text>
	<text x="26" y="405.8" fill="#000000" font-family="Verdana" font-size="12">footer_order</text>
</g>

<!-- Entity PRODUCT -->
<g id="entity-PRODUCT">
	<g id="frame-PRODUCT">
		<rect x="148" y="152" width="118" height="25" fill="#b8e186" stroke="#b8e186" stroke-width="0"/>
		<rect x="148" y="177.0" width="118" height="127" fill="#e6f5d0" stroke="#e6f5d0" stroke-width="0"/>
		<rect x="148" y="152" width="118" height="152" fill="none" stroke="#7fbc41" stroke-width="2"/>
		<line x1="148" y1="177" x2="266" y2="177" stroke="#7fbc41" stroke-width="1"/>
	</g>
	<text x="177" y="169.7" fill="#000000" font-family="Verdana" font-size="12">PRODUCT</text>
	<text x="153" y="194.7" fill="#000000" font-family="Verdana" font-size="12">product_identifier</text>
	<line x1="153" y1="197" x2="261" y2="197" stroke="#000000" stroke-width="1"/>
	<text x="153" y="211.7" fill="#000000" font-family="Verdana" font-size="12">price</text>
	<text x="153" y="228.8" fill="#000000" font-family="Verdana" font-size="12">name</text>
	<text x="153" y="245.8" fill="#000000" font-family="Verdana" font-size="12">description</text>
	<text x="153" y="262.8" fill="#000000" font-family="Verdana" font-size="12">picture</text>
	<text x="153" y="279.8" fill="#000000" font-family="Verdana" font-size="12">rate</text>
	<text x="153" y="296.8" fill="#000000" font-family="Verdana" font-size="12">status</text>
</g>
</svg>